<!--?xml version="1.0" encoding="utf-8"?-->
<!-- Generator: Adobe Illustrator 18.1.1, SVG Export Plug-In . SVG Version: 6.00 Build 0)  -->

<svg version="1.1" id="_x32_" xmlns="http://www.w3.org/2000/svg" xmlns:xlink="http://www.w3.org/1999/xlink" x="0px" y="0px" viewBox="0 0 512 512" style="width: 256px; height: 256px; opacity: 1;" xml:space="preserve">
<style type="text/css">
	.st0{fill:#4B4B4B;}
</style>
<g>
	<polygon class="st0" points="100.704,270.59 134.681,252.713 168.721,270.59 162.236,232.711 189.75,205.906 151.701,200.329 
		134.681,165.862 117.723,200.329 79.675,205.906 107.169,232.711 	" style="fill: rgb(64, 64, 64);"></polygon>
	<polygon class="st0" points="157.208,82.033 183.824,68.037 210.48,82.033 205.392,52.364 226.96,31.375 197.152,26.995 183.824,0 
		170.536,26.995 140.747,31.375 162.275,52.364 	" style="fill: rgb(64, 64, 64);"></polygon>
	<polygon class="st0" points="21.733,120.54 43.362,109.168 65.009,120.54 60.879,96.439 78.397,79.379 54.176,75.828 43.362,53.89 
		32.547,75.828 8.345,79.379 25.843,96.439 	" style="fill: rgb(64, 64, 64);"></polygon>
	<path class="st0" d="M330.87,24.092c16.401,32.034,25.918,68.267,25.918,106.734c0,129.389-104.848,234.277-234.237,234.277
		c-38.507,0-74.74-9.478-106.802-25.957C48.329,439.414,142.423,512,253.556,512c138.108,0,250.099-111.991,250.099-250.1
		C503.655,150.778,431.129,56.654,330.87,24.092z" style="fill: rgb(64, 64, 64);"></path>
</g>
</svg>
