<!--?xml version="1.0" encoding="utf-8"?-->
<!-- Generator: Adobe Illustrator 18.1.1, SVG Export Plug-In . SVG Version: 6.00 Build 0)  -->

<svg version="1.1" id="_x32_" xmlns="http://www.w3.org/2000/svg" xmlns:xlink="http://www.w3.org/1999/xlink" x="0px" y="0px" viewBox="0 0 512 512" style="width: 256px; height: 256px; opacity: 1;" xml:space="preserve">
<style type="text/css">
	.st0{fill:#4B4B4B;}
</style>
<g>
	<ellipse class="st0" cx="256" cy="256" rx="137.275" ry="137.28" style="fill: rgb(211, 211, 211);"></ellipse>
	<rect x="241.16" class="st0" width="29.68" height="81.62" style="fill: rgb(211, 211, 211);"></rect>
	<rect x="241.16" y="430.38" class="st0" width="29.68" height="81.62" style="fill: rgb(211, 211, 211);"></rect>
	<polygon class="st0" points="181.665,97.56 140.855,26.88 115.15,41.72 155.96,112.41 	" style="fill: rgb(211, 211, 211);"></polygon>
	
		<rect x="322.784" y="427.522" transform="matrix(-0.5001 -0.866 0.866 -0.5001 162.3364 978.4368)" class="st0" width="81.618" height="29.677" style="fill: rgb(211, 211, 211);"></rect>
	<polygon class="st0" points="26.88,140.85 97.565,181.66 112.41,155.96 41.72,115.15 	" style="fill: rgb(211, 211, 211);"></polygon>
	<polygon class="st0" points="399.594,356.04 470.285,396.85 485.125,371.15 414.435,330.34 	" style="fill: rgb(211, 211, 211);"></polygon>
	<rect y="241.16" class="st0" width="81.625" height="29.68" style="fill: rgb(211, 211, 211);"></rect>
	<rect x="430.375" y="241.16" class="st0" width="81.625" height="29.68" style="fill: rgb(211, 211, 211);"></rect>
	<polygon class="st0" points="26.88,371.14 41.72,396.85 112.406,356.04 97.565,330.33 	" style="fill: rgb(211, 211, 211);"></polygon>
	<polygon class="st0" points="485.125,140.85 470.285,115.15 399.594,155.96 414.435,181.66 	" style="fill: rgb(211, 211, 211);"></polygon>
	
		<rect x="133.566" y="401.543" transform="matrix(-0.866 -0.5 0.5 -0.866 55.7691 899.6527)" class="st0" width="29.682" height="81.624" style="fill: rgb(211, 211, 211);"></rect>
	<polygon class="st0" points="330.335,97.56 356.04,112.41 396.85,41.72 371.15,26.88 	" style="fill: rgb(211, 211, 211);"></polygon>
</g>
</svg>
